<svg width="13" height="20" viewBox="0 0 13 20" fill="none" xmlns="http://www.w3.org/2000/svg">
<path d="M0.592534 11.2975L10.1188 19.5699C11.2414 20.5462 13 19.7527 13 18.2711V1.72633C13.0003 1.39474 12.9043 1.07009 12.7235 0.791268C12.5426 0.512446 12.2847 0.291266 11.9805 0.154217C11.6763 0.0171671 11.3387 -0.0299427 11.0082 0.0185288C10.6778 0.0670002 10.3684 0.208998 10.1171 0.427518L0.594272 8.6999C0.407622 8.8618 0.258026 9.06146 0.155528 9.28547C0.0530292 9.50949 0 9.75268 0 9.99871C0 10.2447 0.0530292 10.4879 0.155528 10.712C0.258026 10.936 0.407622 11.1356 0.594272 11.2975H0.592534Z" fill="white" />
</svg>
