<svg width="13" height="20" viewBox="0 0 13 20" fill="none" xmlns="http://www.w3.org/2000/svg">
<path d="M12.4075 11.2975L2.88117 19.5699C1.75859 20.5462 9.53674e-07 19.7527 9.53674e-07 18.2711V1.72633C-0.000286102 1.39474 0.0957289 1.07009 0.276546 0.791268C0.457363 0.512446 0.715319 0.291266 1.01952 0.154217C1.32372 0.0171671 1.66128 -0.0299427 1.99176 0.0185288C2.32224 0.0670002 2.63164 0.208998 2.88291 0.427518L12.4057 8.6999C12.5924 8.8618 12.742 9.06146 12.8445 9.28547C12.947 9.50949 13 9.75268 13 9.99871C13 10.2447 12.947 10.4879 12.8445 10.712C12.742 10.936 12.5924 11.1356 12.4057 11.2975H12.4075Z" fill="white" />
</svg>
