<svg xmlns="http://www.w3.org/2000/svg" xmlns:xlink="http://www.w3.org/1999/xlink" aria-hidden="true" role="img" width="1em" height="1em" preserveAspectRatio="xMidYMid meet" viewBox="0 0 32 32"><path d="M16 0L2.14 8v16L16 32l13.86-8V8zm8 22.12c0 .943-.86 1.719-2.036 1.719c-.844 0-1.803-.339-2.401-1.079l-8-9.52v8.88c0 .959-.76 1.719-1.703 1.719h-.1a1.732 1.732 0 0 1-1.719-1.719V9.88c0-.943.839-1.719 2-1.719c.86 0 1.839.339 2.437 1.079l7.959 9.52V9.88c0-.963.803-1.719 1.724-1.719h.099a1.73 1.73 0 0 1 1.719 1.719v12.24z" fill="currentColor"/></svg>